{
	"asset":{
		"version":"2.0",
		"generator":"Created using the official Cinema 4D glTF Exporter 1.000x284978"
	},
	"nodes":[{
		"name":"底座",
		"mesh":0,
		"translation":[658.0146484375,
		-165.8319549560547,
		-459.26434326171877],
		"rotation":[0.0,
		0.0,
		0.0,
		-1.0],
		"scale":[1.0,
		1.0,
		1.0]
	}],
	"scenes":[{
		"nodes":[0]
	}],
	"meshes":[{
		"name":"底座",
		"primitives":[{
			"attributes":{
				"POSITION":1,
				"TEXCOORD_0":2
			},
			"indices":0,
			"material":0
		}]
	}],
	"accessors":[{
		"bufferView":0,
		"type":"SCALAR",
		"componentType":5123,
		"count":9000,
		"byteOffset":0,
		"min":[0],
		"max":[1705]
	},
	{
		"bufferView":1,
		"type":"VEC3",
		"componentType":5126,
		"count":1706,
		"byteOffset":0,
		"min":[-6601.4580078125,
		-182.0,
		-6601.4580078125],
		"max":[6601.4580078125,
		182.0,
		6601.4580078125]
	},
	{
		"bufferView":1,
		"type":"VEC2",
		"componentType":5126,
		"count":1706,
		"byteOffset":12,
		"min":[0.0,
		0.0],
		"max":[1.0,
		1.0]
	}],
	"bufferViews":[{
		"buffer":0,
		"byteOffset":0,
		"byteLength":18000,
		"target":34963
	},
	{
		"buffer":0,
		"byteOffset":18000,
		"byteLength":34120,
		"target":34962,
		"byteStride":20
	}],
	"buffers":[{
		"uri":"data:application/octet-stream;base64,",
		"byteLength":52120
	}],
	"materials":[{
		"pbrMetallicRoughness":{
			"baseColorFactor":[0.3098039329051969,
			0.490196079015732,
			0.17254902422428104,
			1.0],
			"metallicFactor":1.0,
			"roughnessFactor":1.0
		},
		"emissiveFactor":[0.0,
		0.0,
		0.0],
		"alphaMode":"OPAQUE",
		"doubleSided":false,
		"name":"GREEN"
	}]
}